<svg xmlns="http://www.w3.org/2000/svg" xmlns:xlink="http://www.w3.org/1999/xlink" width="94" height="91" viewBox="0 0 94 91"><defs><path id="a" d="M1058.5 270a40.5 40.5 0 1 1 0 81 40.5 40.5 0 0 1 0-81z"/><path id="c" d="M1049.77 320.26l14.87 37.11-1.33.54a41.87 41.87 0 0 1-32.5-.38c-21.26-9.2-31.42-34.54-22.65-56.48 8.66-21.64 33.27-31.68 56.02-22.87 9.78 3.78 17.58 11.38 21.99 21.4a46.29 46.29 0 0 1 .77 34.98l-.53 1.38zm-5.22-5.35l14.39 6.16a1.4 1.4 0 0 1 1.17-.66c.79 0 1.42.64 1.42 1.43 0 .11-.03.2-.06.31l10.1 4.32c-.02-.1-.06-.2-.06-.32 0-.79.64-1.43 1.43-1.43a1.42 1.42 0 1 1 .72 2.65l11.13 4.76.16-.52a1.42 1.42 0 0 1 .76-2.57c.55-2.1.94-4.22 1.18-6.35-.26.35-.66.59-1.13.59-.79 0-1.42-.64-1.42-1.44 0-.79.63-1.43 1.42-1.43.55 0 1.02.32 1.26.79.17-2.41.16-4.83-.06-7.24-.26.41-.68.7-1.2.7-.79 0-1.42-.64-1.42-1.43 0-.8.63-1.44 1.42-1.44.39 0 .74.16 1 .42-.28-2.1-.72-4.2-1.31-6.23a1.41 1.41 0 0 1-.75-2.32 35.1 35.1 0 0 0-1.14-2.91c-4.09-9.32-11.34-16.38-20.4-19.89-.8-.3-1.61-.58-2.41-.84-.19.1-.41.17-.64.17-.53 0-.97-.3-1.21-.73a44.3 44.3 0 0 0-6.02-1.22 1.43 1.43 0 1 1-2.75.51c0-.29.11-.54.25-.76a42.3 42.3 0 0 0-6.19.01c.14.22.24.47.24.75 0 .8-.64 1.44-1.42 1.44-.79 0-1.43-.65-1.43-1.44 0-.17.05-.33.1-.48-2.08.29-4.12.73-6.1 1.33-.26.35-.66.59-1.12.59-.14 0-.28-.04-.4-.08-1.31.45-2.59.95-3.84 1.52a1.43 1.43 0 0 1-.04 2.86c-.78 0-1.42-.64-1.42-1.43 0-.32.12-.6.3-.84a37.93 37.93 0 0 0-16.97 17.06c.25-.26.6-.42.99-.42a1.43 1.43 0 0 1 0 2.88c-.79 0-1.42-.65-1.42-1.44l.02-.14a35.07 35.07 0 0 0-1.58 3.87c.08.17.13.37.13.58 0 .52-.29.95-.69 1.2a39.74 39.74 0 0 0-1.31 6.11c.17-.08.37-.13.58-.13.78 0 1.42.65 1.42 1.44 0 .8-.64 1.43-1.42 1.43-.32 0-.6-.12-.83-.3-.16 2.13-.15 4.24.01 6.34.23-.17.51-.3.81-.3a1.43 1.43 0 1 1-.54 2.77c.29 2.07.72 4.12 1.31 6.11.39.26.66.68.66 1.18 0 .2-.04.38-.11.54.46 1.33.98 2.63 1.56 3.9l-.02-.13a1.42 1.42 0 1 1 2.85 0c0 .8-.64 1.44-1.43 1.44-.37 0-.7-.15-.95-.38a39.66 39.66 0 0 0 21.21 19.63c.26-.34.66-.58 1.12-.58.79 0 1.42.65 1.42 1.44v.03a39.03 39.03 0 0 0 22.84.12l-.03-.15c0-.8.63-1.44 1.42-1.44.18 0 .34.04.5.1l-4.14-10.32c-.19.1-.4.16-.63.16a1.42 1.42 0 1 1-.42-2.79l-4.08-10.18a1.41 1.41 0 0 1-1.2-1.4c0-.31.12-.6.3-.84zm45.28 28a39.21 39.21 0 0 1-18.45 17.75l-.55.26-1.27-.45-.33-.67-13.33-33.27 33.7 14.42.3.68c.15.41.12.88-.07 1.27zm-3.19-.1l-25.52-10.93 10.25 25.6a36.3 36.3 0 0 0 15.27-14.67zm-47.91-61.2a1.43 1.43 0 0 1 0 2.88 1.43 1.43 0 1 1 0-2.87zm4.28 4.32c.79 0 1.42.64 1.42 1.43a1.42 1.42 0 1 1-2.85 0c0-.79.64-1.43 1.43-1.43zm4.27-4.31a1.43 1.43 0 0 1 0 2.87 1.43 1.43 0 1 1 0-2.87zm-12.82 4.3c.79 0 1.42.65 1.42 1.44a1.42 1.42 0 1 1-2.85 0c0-.79.64-1.43 1.43-1.43zm-8.55 0c.78 0 1.42.65 1.42 1.44 0 .8-.64 1.44-1.42 1.44a1.43 1.43 0 0 1 0-2.87zm25.65 0c.79 0 1.43.65 1.43 1.44a1.42 1.42 0 1 1-2.85 0c0-.79.63-1.43 1.42-1.43zm4.28-4.3c.78 0 1.42.64 1.42 1.44 0 .79-.64 1.43-1.42 1.43a1.43 1.43 0 1 1 0-2.87zm8.55 0c.78 0 1.42.64 1.42 1.44 0 .79-.64 1.43-1.42 1.43a1.43 1.43 0 1 1 0-2.87zm-25.66 8.62a1.43 1.43 0 0 1 0 2.87c-.78 0-1.42-.64-1.42-1.44 0-.79.64-1.43 1.42-1.43zm8.55 0a1.43 1.43 0 0 1 0 2.87c-.78 0-1.42-.64-1.42-1.44 0-.79.64-1.43 1.42-1.43zm-17.1 0a1.43 1.43 0 0 1 0 2.87c-.78 0-1.42-.64-1.42-1.44 0-.79.64-1.43 1.42-1.43zm-8.55 0a1.43 1.43 0 0 1 0 2.87c-.78 0-1.42-.64-1.42-1.44 0-.79.64-1.43 1.42-1.43zm51.31 0a1.43 1.43 0 1 1 0 2.87c-.79 0-1.43-.64-1.43-1.44 0-.79.64-1.43 1.43-1.43zm-17.1 0a1.43 1.43 0 1 1 0 2.87c-.79 0-1.43-.64-1.43-1.44 0-.79.64-1.43 1.43-1.43zm8.55 0a1.43 1.43 0 1 1 0 2.87c-.79 0-1.43-.64-1.43-1.44 0-.79.64-1.43 1.43-1.43zm-4.28-4.31a1.43 1.43 0 1 1 0 2.87c-.79 0-1.42-.64-1.42-1.44 0-.79.63-1.43 1.42-1.43zm8.55 0a1.43 1.43 0 1 1 0 2.87c-.79 0-1.42-.64-1.42-1.44 0-.79.63-1.43 1.42-1.43zm-29.93 12.93a1.43 1.43 0 1 1 0 2.87c-.78 0-1.42-.64-1.42-1.44 0-.79.64-1.43 1.42-1.43zm4.28-4.31c.79 0 1.42.64 1.42 1.43a1.43 1.43 0 1 1-2.85 0c0-.79.64-1.43 1.43-1.43zm0 8.62c.79 0 1.42.64 1.42 1.43a1.42 1.42 0 1 1-2.85 0c0-.79.64-1.43 1.43-1.43zm4.27-4.31a1.43 1.43 0 1 1 0 2.87c-.78 0-1.42-.64-1.42-1.44 0-.79.64-1.43 1.42-1.43zm-17.1 0a1.43 1.43 0 1 1 0 2.87c-.78 0-1.42-.64-1.42-1.44 0-.79.64-1.43 1.42-1.43zm4.28-4.31c.79 0 1.42.64 1.42 1.43a1.43 1.43 0 1 1-2.85 0c0-.79.64-1.43 1.43-1.43zm0 8.62c.79 0 1.42.64 1.42 1.43a1.42 1.42 0 1 1-2.85 0c0-.79.64-1.43 1.43-1.43zm-12.83-4.31a1.43 1.43 0 1 1 0 2.87c-.78 0-1.42-.64-1.42-1.44 0-.79.64-1.43 1.42-1.43zm-4.27-4.31a1.43 1.43 0 1 1 0 2.87 1.43 1.43 0 0 1 0-2.87zm8.55 0a1.43 1.43 0 1 1 0 2.87 1.43 1.43 0 0 1 0-2.87zm-8.55 8.62c.78 0 1.42.64 1.42 1.43 0 .8-.64 1.44-1.42 1.44-.79 0-1.43-.64-1.43-1.44 0-.79.64-1.43 1.43-1.43zm8.55 0c.78 0 1.42.64 1.42 1.43 0 .8-.64 1.44-1.42 1.44-.79 0-1.43-.64-1.43-1.44 0-.79.64-1.43 1.43-1.43zm55.58-4.31c.79 0 1.42.64 1.42 1.43a1.42 1.42 0 1 1-2.85 0c0-.79.64-1.43 1.43-1.43zm-8.55 0a1.43 1.43 0 1 1 0 2.87 1.43 1.43 0 0 1 0-2.87zm4.27-4.31a1.43 1.43 0 0 1 0 2.87c-.78 0-1.42-.64-1.42-1.44 0-.79.64-1.43 1.42-1.43zm0 8.62a1.43 1.43 0 0 1 0 2.87c-.78 0-1.42-.64-1.42-1.44 0-.79.64-1.43 1.42-1.43zm-25.65-8.62a1.43 1.43 0 0 1 0 2.87c-.79 0-1.42-.64-1.42-1.44 0-.79.63-1.43 1.42-1.43zm0 8.62a1.43 1.43 0 0 1 0 2.87c-.79 0-1.42-.64-1.42-1.44 0-.79.63-1.43 1.42-1.43zm4.28-4.31a1.43 1.43 0 1 1 0 2.87 1.43 1.43 0 0 1 0-2.87zm8.55 0a1.43 1.43 0 1 1 0 2.87 1.43 1.43 0 0 1 0-2.87zm-25.66 8.62a1.43 1.43 0 1 1 0 2.87c-.78 0-1.42-.64-1.42-1.44 0-.8.64-1.43 1.42-1.43zm8.55 0a1.43 1.43 0 1 1 0 2.87c-.78 0-1.42-.64-1.42-1.44 0-.8.64-1.43 1.42-1.43zm-17.1 0a1.43 1.43 0 1 1 0 2.87c-.78 0-1.42-.64-1.42-1.44 0-.8.64-1.43 1.42-1.43zm-17.1 0a1.43 1.43 0 1 1 0 2.87c-.79 0-1.42-.64-1.42-1.44 0-.8.63-1.43 1.42-1.43zm8.55 0a1.43 1.43 0 1 1 0 2.87c-.78 0-1.42-.64-1.42-1.44 0-.8.64-1.43 1.42-1.43zm59.86 0c.79 0 1.42.64 1.42 1.43a1.42 1.42 0 1 1-2.85 0c0-.8.64-1.43 1.43-1.43zm-8.55 0a1.43 1.43 0 1 1 0 2.87 1.43 1.43 0 0 1 0-2.87zm-17.1 0a1.43 1.43 0 1 1 0 2.87 1.43 1.43 0 0 1 0-2.87zm8.55 0a1.43 1.43 0 1 1 0 2.87 1.43 1.43 0 0 1 0-2.87zm-4.28-12.93a1.43 1.43 0 0 1 0 2.87c-.79 0-1.42-.64-1.42-1.44 0-.79.63-1.43 1.42-1.43zm8.55 0a1.43 1.43 0 0 1 0 2.87c-.79 0-1.42-.64-1.42-1.44 0-.79.63-1.43 1.42-1.43zm-8.55 8.62a1.43 1.43 0 0 1 0 2.87c-.79 0-1.42-.64-1.42-1.44 0-.79.63-1.43 1.42-1.43zm8.55 0a1.43 1.43 0 0 1 0 2.87c-.79 0-1.42-.64-1.42-1.44 0-.79.63-1.43 1.42-1.43zm-29.93 12.93a1.43 1.43 0 1 1 0 2.87c-.78 0-1.42-.64-1.42-1.44 0-.8.64-1.43 1.42-1.43zm4.28-4.31c.79 0 1.42.64 1.42 1.43a1.42 1.42 0 1 1-2.85 0c0-.8.64-1.43 1.43-1.43zm0 8.61c.79 0 1.42.65 1.42 1.44a1.42 1.42 0 1 1-2.85 0c0-.8.64-1.44 1.43-1.44zm-12.83-4.3a1.43 1.43 0 1 1 0 2.87c-.78 0-1.42-.64-1.42-1.44 0-.8.64-1.43 1.42-1.43zm4.28-4.31c.79 0 1.42.64 1.42 1.43a1.42 1.42 0 1 1-2.85 0c0-.8.64-1.43 1.43-1.43zm0 8.61c.79 0 1.42.65 1.42 1.44a1.42 1.42 0 1 1-2.85 0c0-.8.64-1.44 1.43-1.44zm-21.38-4.3a1.43 1.43 0 1 1 0 2.87c-.79 0-1.42-.64-1.42-1.44 0-.8.63-1.43 1.42-1.43zm8.55 0a1.43 1.43 0 1 1 0 2.87c-.78 0-1.42-.64-1.42-1.44 0-.8.64-1.43 1.42-1.43zm-4.27-4.31a1.43 1.43 0 1 1 0 2.87c-.79 0-1.43-.65-1.43-1.44 0-.8.64-1.43 1.43-1.43zm8.55 0a1.43 1.43 0 1 1 0 2.87c-.79 0-1.43-.65-1.43-1.44 0-.8.64-1.43 1.43-1.43zm-8.55 8.61c.78 0 1.42.65 1.42 1.44 0 .8-.64 1.44-1.42 1.44-.79 0-1.43-.65-1.43-1.44 0-.8.64-1.44 1.43-1.44zm8.55 0c.78 0 1.42.65 1.42 1.44 0 .8-.64 1.44-1.42 1.44-.79 0-1.43-.65-1.43-1.44 0-.8.64-1.44 1.43-1.44zm55.58-4.3c.79 0 1.42.64 1.42 1.43a1.42 1.42 0 1 1-2.85 0c0-.8.64-1.43 1.43-1.43zm-8.55 0a1.43 1.43 0 1 1 0 2.87 1.43 1.43 0 0 1 0-2.87zm4.27-4.31a1.43 1.43 0 0 1 0 2.87c-.78 0-1.42-.65-1.42-1.44 0-.8.64-1.43 1.42-1.43zm0 8.61a1.43 1.43 0 0 1 0 2.88c-.78 0-1.42-.65-1.42-1.44 0-.8.64-1.44 1.42-1.44zm-25.65-8.61a1.43 1.43 0 0 1 0 2.87c-.79 0-1.42-.65-1.42-1.44 0-.8.63-1.43 1.42-1.43zm4.28 4.3c.78 0 1.42.65 1.42 1.44 0 .8-.64 1.44-1.42 1.44a1.43 1.43 0 0 1 0-2.88zm8.55 0c.78 0 1.42.65 1.42 1.44 0 .8-.64 1.44-1.42 1.44a1.43 1.43 0 0 1 0-2.88zm-25.66 8.62c.79 0 1.43.65 1.43 1.44 0 .8-.64 1.44-1.43 1.44-.78 0-1.42-.65-1.42-1.44 0-.8.64-1.44 1.42-1.44zm8.55 0c.79 0 1.43.65 1.43 1.44 0 .8-.64 1.44-1.43 1.44-.78 0-1.42-.65-1.42-1.44 0-.8.64-1.44 1.42-1.44zm-17.1 0c.79 0 1.43.65 1.43 1.44 0 .8-.64 1.44-1.43 1.44-.78 0-1.42-.65-1.42-1.44 0-.8.64-1.44 1.42-1.44zm-17.1 0c.79 0 1.43.65 1.43 1.44a1.43 1.43 0 0 1-2.85 0c0-.8.63-1.44 1.42-1.44zm8.55 0c.79 0 1.43.65 1.43 1.44 0 .8-.64 1.44-1.43 1.44-.78 0-1.42-.65-1.42-1.44 0-.8.64-1.44 1.42-1.44zm59.86 0c.79 0 1.42.65 1.42 1.44a1.43 1.43 0 1 1-2.85 0c0-.8.64-1.44 1.43-1.44zm-21.38-12.92a1.43 1.43 0 0 1 0 2.87c-.79 0-1.42-.65-1.42-1.44 0-.8.63-1.43 1.42-1.43zm8.55 0a1.43 1.43 0 0 1 0 2.87c-.79 0-1.42-.65-1.42-1.44 0-.8.63-1.43 1.42-1.43zm0 8.61a1.43 1.43 0 0 1 0 2.88c-.79 0-1.42-.65-1.42-1.44 0-.8.63-1.44 1.42-1.44zm-29.93 12.93c.79 0 1.43.65 1.43 1.44 0 .8-.64 1.44-1.43 1.44-.78 0-1.42-.65-1.42-1.44 0-.8.64-1.44 1.42-1.44zm4.28-4.3c.79 0 1.42.64 1.42 1.43a1.42 1.42 0 1 1-2.85 0c0-.8.64-1.44 1.43-1.44zm0 8.61c.79 0 1.42.65 1.42 1.44a1.42 1.42 0 1 1-2.85 0c0-.8.64-1.44 1.43-1.44zm4.27-4.3a1.43 1.43 0 1 1 0 2.87c-.78 0-1.42-.65-1.42-1.44 0-.8.64-1.44 1.42-1.44zm-17.1 0a1.43 1.43 0 1 1 0 2.87c-.78 0-1.42-.65-1.42-1.44 0-.8.64-1.44 1.42-1.44zm4.28-4.32c.79 0 1.42.65 1.42 1.44a1.42 1.42 0 1 1-2.85 0c0-.8.64-1.44 1.43-1.44zm0 8.62c.79 0 1.42.65 1.42 1.44a1.42 1.42 0 1 1-2.85 0c0-.8.64-1.44 1.43-1.44zm-12.83-4.3a1.43 1.43 0 1 1 0 2.87c-.78 0-1.42-.65-1.42-1.44 0-.8.64-1.44 1.42-1.44zm-4.27-4.32c.78 0 1.42.65 1.42 1.44 0 .8-.64 1.44-1.42 1.44a1.43 1.43 0 0 1 0-2.88zm8.55 0c.78 0 1.42.65 1.42 1.44 0 .8-.64 1.44-1.42 1.44a1.43 1.43 0 0 1 0-2.88zm-8.55 8.62c.78 0 1.42.65 1.42 1.44 0 .8-.64 1.44-1.42 1.44-.79 0-1.43-.65-1.43-1.44 0-.8.64-1.44 1.43-1.44zm8.55 0c.78 0 1.42.65 1.42 1.44 0 .8-.64 1.44-1.42 1.44-.79 0-1.43-.65-1.43-1.44 0-.8.64-1.44 1.43-1.44zm25.65 0a1.43 1.43 0 0 1 0 2.88c-.79 0-1.42-.65-1.42-1.44 0-.8.63-1.44 1.42-1.44zm-12.83 4.31a1.43 1.43 0 0 1 0 2.87 1.43 1.43 0 1 1 0-2.87zm8.55 0a1.43 1.43 0 0 1 0 2.87 1.43 1.43 0 1 1 0-2.87zm-17.1 0a1.43 1.43 0 0 1 0 2.87 1.43 1.43 0 1 1 0-2.87zm-8.55 0a1.43 1.43 0 0 1 0 2.87 1.43 1.43 0 1 1 0-2.87zm17.1 8.62a1.43 1.43 0 0 1 0 2.87 1.43 1.43 0 1 1 0-2.87zm4.28-4.3c.79 0 1.42.63 1.42 1.43a1.42 1.42 0 1 1-2.85 0c0-.8.64-1.44 1.43-1.44zm0 8.61c.79 0 1.42.64 1.42 1.44a1.42 1.42 0 1 1-2.85 0c0-.8.64-1.44 1.43-1.44zm4.27-4.31a1.43 1.43 0 0 1 0 2.87 1.43 1.43 0 1 1 0-2.87zm-17.1 0a1.43 1.43 0 0 1 0 2.87 1.43 1.43 0 1 1 0-2.87zm4.28-4.3c.79 0 1.42.63 1.42 1.43a1.42 1.42 0 1 1-2.85 0c0-.8.64-1.44 1.43-1.44zm-8.55 0c.78 0 1.42.63 1.42 1.43 0 .8-.64 1.43-1.42 1.43a1.43 1.43 0 0 1 0-2.87zm25.65 0a1.43 1.43 0 1 1 0 2.87c-.79 0-1.42-.65-1.42-1.44 0-.8.63-1.44 1.42-1.44zm0 8.61a1.43 1.43 0 0 1 0 2.87c-.79 0-1.42-.64-1.42-1.43 0-.8.63-1.44 1.42-1.44zm4.28-4.31c.78 0 1.42.64 1.42 1.44 0 .79-.64 1.43-1.42 1.43a1.43 1.43 0 1 1 0-2.87z"/><radialGradient id="b" cx="1045" cy="270" r="85.38" gradientUnits="userSpaceOnUse"><stop offset="0" stop-color="#57ffe9"/><stop offset="1" stop-color="#91ffc0"/></radialGradient></defs><g transform="translate(-1005 -270)"><use fill="#57ffe9" xlink:href="#a"/><use fill="url(#b)" xlink:href="#a"/></g><g transform="translate(-1005 -270)"><use fill="#090fff" xlink:href="#c"/></g></svg>