<svg xmlns="http://www.w3.org/2000/svg" xmlns:xlink="http://www.w3.org/1999/xlink" width="63" height="16" viewBox="0 0 63 16"><defs><path id="a" d="M1013 702a8 8 0 1 1 0 16 8 8 0 0 1 0-16z"/><path id="b" d="M1059.71 713c-2.2 0-3.32-.99-4.31-1.86-.89-.8-1.59-1.42-3.1-1.42-1.5 0-2.21.63-3.1 1.42-.98.87-2.1 1.86-4.3 1.86-2.2 0-3.31-.99-4.3-1.86-.89-.8-1.6-1.42-3.1-1.42-1.51 0-2.21.63-3.1 1.42-.99.87-2.11 1.86-4.3 1.86-2.2 0-3.32-.99-4.31-1.86-.89-.8-1.59-1.42-3.09-1.42-1.51 0-2.21.63-3.1 1.42-.99.87-2.11 1.86-4.31 1.86-2.19 0-3.31-.99-4.3-1.86-.89-.8-1.59-1.42-3.1-1.42a.88.88 0 0 1-.89-.86c0-.47.4-.86.89-.86 2.2 0 3.32 1 4.3 1.86.89.8 1.6 1.42 3.1 1.42 1.51 0 2.21-.63 3.1-1.41.99-.88 2.11-1.87 4.31-1.87 2.19 0 3.31 1 4.3 1.86.89.8 1.59 1.42 3.1 1.42 1.5 0 2.2-.63 3.1-1.41.98-.88 2.1-1.87 4.3-1.87 2.2 0 3.31 1 4.3 1.86.89.8 1.6 1.42 3.1 1.42 1.51 0 2.21-.63 3.1-1.41.99-.88 2.11-1.87 4.3-1.87 2.2 0 3.32 1 4.31 1.86.89.8 1.59 1.42 3.1 1.42 1.5 0 2.2-.63 3.1-1.41.98-.88 2.1-1.87 4.3-1.87.49 0 .89.39.89.86 0 .48-.4.86-.89.86-1.51 0-2.21.63-3.1 1.42-.99.87-2.11 1.86-4.3 1.86z"/></defs><g transform="translate(-1005 -702)"><use fill="#dcf919" xlink:href="#a"/></g><g transform="translate(-1005 -702)"><use fill="#1f00ff" xlink:href="#b"/></g></svg>