<svg xmlns="http://www.w3.org/2000/svg" xmlns:xlink="http://www.w3.org/1999/xlink" width="28" height="21" viewBox="0 0 28 21"><defs><path id="a" d="M1073.98 3300.82c-.01.04.01.09-.01.13l-7.35 16.94a.71.71 0 0 1-.86.38l-4.57-1.49-4.61 4.05-.05.01a.62.62 0 0 1-.34.15l-.08.01a.63.63 0 0 1-.32-.1c-.04-.01-.06-.04-.09-.06-.04-.03-.08-.04-.1-.08-.02-.01-.02-.04-.03-.06l-.08-.1-2.93-6.2-6.03-1.45a.7.7 0 0 1-.53-.61.7.7 0 0 1 .41-.69l26.64-11.6a.68.68 0 0 1 .37-.04l.04-.01c.13.03.26.09.36.19l.03.05.04.02c.02.03.01.07.02.1.06.1.09.19.09.31 0 .05 0 .1-.02.15zm-8.06 5.47l-11.99 7.77 1.94 4.12.78-3.53a.7.7 0 0 1 .2-.33l.02-.04zm-17.07 5.8l4.07.97 12.98-8.39zm10.81 4.19l-1.82-.59-.59 2.71zm11.8-13.03l-12.77 11.27 6.9 2.25z"/></defs><g transform="translate(-1046 -3300)"><use fill="#fff" xlink:href="#a"/></g></svg>