<svg xmlns="http://www.w3.org/2000/svg" xmlns:xlink="http://www.w3.org/1999/xlink" width="17" height="17" viewBox="0 0 17 17"><defs><path id="a" d="M417 534.37c0 1.29-.28 2.52-.79 3.63-.74-3.8-4.5-6.68-8.65-6.68l-.02 3.57a.59.59 0 0 1-.17.5.64.64 0 0 1-.46.2c-.2 0-.36-.1-.48-.23l-6.25-6.61a.6.6 0 0 1-.18-.47.6.6 0 0 1 .18-.46l6.29-6.65a.66.66 0 0 1 .9 0c.14.14.2.33.17.5v3.59c5.22 0 9.46 4.08 9.46 9.1zm-1.26-.6c-.02-2.3-3.1-7.17-7.56-7.3-.32-.02-1.9 0-1.9 0v-3.28l-4.82 5.1 4.82 5.09v-3.26l1.9-.01c2.63 0 6.2 1.97 7.56 3.65z"/></defs><g transform="translate(-400 -521)"><use xlink:href="#a"/></g></svg>