<svg xmlns="http://www.w3.org/2000/svg" xmlns:xlink="http://www.w3.org/1999/xlink" width="86" height="86" viewBox="0 0 86 86"><defs><path id="a" d="M448.14 1734.14l-.86-1.18a1.37 1.37 0 0 1 2.22-1.61l.86 1.17a13.35 13.35 0 0 1 5.27-1.72v-1.44a1.37 1.37 0 1 1 2.74 0v1.44c1.9.2 3.7.81 5.27 1.72l.85-1.17a1.37 1.37 0 0 1 2.22 1.61l-.85 1.18a13.28 13.28 0 0 1 3.26 4.48l1.38-.45a1.37 1.37 0 0 1 .85 2.61l-1.38.45a13.21 13.21 0 0 1 0 5.54l1.38.45a1.37 1.37 0 1 1-.85 2.61l-1.38-.45a13.28 13.28 0 0 1-3.26 4.48l.85 1.18c.45.61.31 1.47-.3 1.91a1.35 1.35 0 0 1-1.92-.3l-.85-1.17a13.35 13.35 0 0 1-5.27 1.72v1.44a1.37 1.37 0 1 1-2.74 0v-1.45c-1.9-.19-3.7-.8-5.27-1.71l-.85 1.17c-.27.37-.7.56-1.12.56a1.36 1.36 0 0 1-1.1-2.17l.85-1.18a13.28 13.28 0 0 1-3.26-4.48l-1.38.45a1.37 1.37 0 0 1-.85-2.61l1.38-.45a13.21 13.21 0 0 1 0-5.54l-1.38-.45a1.37 1.37 0 1 1 .85-2.61l1.38.45a13.3 13.3 0 0 1 3.26-4.48zm-1.66 9.86a10.53 10.53 0 0 0 21.04 0 10.53 10.53 0 0 0-21.04 0zm53.52 0c0 7.35-1.89 14.61-5.47 20.99-.37.67-1.2.9-1.86.53a1.38 1.38 0 0 1-.53-1.87 40.3 40.3 0 0 0-35.14-59.91 40.3 40.3 0 0 0-40.26 40.26 40.3 40.3 0 0 0 40.26 40.26c6.89 0 13.68-1.77 19.65-5.12a1.38 1.38 0 0 1 1.34 2.4 43.07 43.07 0 0 1-51.4-7.13A42.74 42.74 0 0 1 414 1744a42.74 42.74 0 0 1 12.6-30.41A42.72 42.72 0 0 1 457 1701a42.72 42.72 0 0 1 30.4 12.59A42.74 42.74 0 0 1 500 1744zm-6.25 29.44a7.32 7.32 0 1 1-14.64-.03 7.32 7.32 0 0 1 14.64.03zm-2.74 0a4.58 4.58 0 1 0-9.16 0 4.58 4.58 0 0 0 9.16 0zm-61.46-40.28a1.37 1.37 0 0 1 2.55 1.01 26.76 26.76 0 1 0 15.1-15.08 1.37 1.37 0 1 1-1.04-2.54 29.5 29.5 0 1 1-16.61 16.61zm12.73-14.23a7.33 7.33 0 1 1-10.37 10.35 7.33 7.33 0 0 1 10.37-10.35zm-1.94 1.94a4.56 4.56 0 0 0-7.8 3.24 4.52 4.52 0 0 0 4.57 4.57 4.58 4.58 0 0 0 3.24-7.81z"/></defs><g transform="translate(-414 -1701)"><use fill="#fff" xlink:href="#a"/></g></svg>