<svg xmlns="http://www.w3.org/2000/svg" xmlns:xlink="http://www.w3.org/1999/xlink" width="34" height="34" viewBox="0 0 34 34"><defs><path id="a" d="M830.63 293.78a10.43 10.43 0 0 1-20.83 0 10.43 10.43 0 0 1 14.26-9.68.8.8 0 0 1-.6 1.49 8.82 8.82 0 1 0-3.24 17 8.82 8.82 0 0 0 8.2-12.05.8.8 0 1 1 1.48-.6c.49 1.23.73 2.52.73 3.84zm4.8 0c0 8.4-6.82 15.22-15.21 15.22-8.4 0-15.22-6.83-15.22-15.22a15.24 15.24 0 0 1 19.42-14.63.8.8 0 1 1-.44 1.54 13.62 13.62 0 1 0-3.76 26.7 13.63 13.63 0 0 0 13.09-17.37.8.8 0 1 1 1.54-.44c.39 1.36.59 2.77.59 4.2zm-9.6 0a5.61 5.61 0 1 1-5.1-5.59.8.8 0 0 1-.15 1.6 4 4 0 1 0 3.63 3.64.8.8 0 1 1 1.6-.14l.02.49zm12.7-11.64l-4.67 4.68a2.4 2.4 0 0 1-1.7.7h-4.54l-6.52 6.52a.8.8 0 0 1-1.14 0 .8.8 0 0 1 0-1.13l6.52-6.52v-4.54c0-.65.25-1.25.7-1.7l4.68-4.68a1.6 1.6 0 0 1 2.74 1.14v2.8h2.8a1.6 1.6 0 0 1 1.13 2.73zm-10.44-.3v2.94l4.9-4.9v-3.27l-4.67 4.67a.8.8 0 0 0-.23.57zm9.3-.83h-3.26l-4.91 4.9h2.93a.8.8 0 0 0 .57-.23z"/></defs><g transform="translate(-805 -275)"><use xlink:href="#a"/></g></svg>