<svg xmlns="http://www.w3.org/2000/svg" xmlns:xlink="http://www.w3.org/1999/xlink" width="15" height="9" viewBox="0 0 15 9"><defs><path id="a" d="M1077.88 960.14c.16.21.16.5 0 .72-1.92 2.56-4.51 4.14-7.38 4.14s-5.47-1.58-7.38-4.14a.59.59 0 0 1 0-.72c1.91-2.56 4.51-4.14 7.38-4.14s5.46 1.58 7.38 4.14zm-4.23.57a3.17 3.17 0 0 0-3.36-3.38 3.17 3.17 0 0 0 .42 6.34 3.19 3.19 0 0 0 2.94-2.96zm-3.04 1.5a1.71 1.71 0 1 1-.22-3.41 1.7 1.7 0 0 1 .22 3.4z"/></defs><g transform="translate(-1063 -956)"><use fill="#a7a7a7" xlink:href="#a"/></g></svg>