<svg xmlns="http://www.w3.org/2000/svg" xmlns:xlink="http://www.w3.org/1999/xlink" width="30" height="15" viewBox="0 0 30 15"><defs><path id="a" d="M953.44 1122.99l-.03.01h-20.55a.65.65 0 0 1-.65-.64v-3.7h-3.37a.65.65 0 0 1-.65-.64c0-.36.3-.64.65-.64h3.37v-.79c0-.35.29-.64.65-.64.36 0 .65.29.65.64v4.22l5.7-5.62a.43.43 0 0 1 .08-.07l-5.78-5.05v2.53c0 .35-.3.64-.66.64a.65.65 0 0 1-.65-.64v-3.97-.03l.01-.03v-.04a.31.31 0 0 1 .02-.06v-.03l.02-.03v-.02l.02-.03.02-.03.01-.03.02-.02.02-.03.02-.03.02-.02.03-.02.02-.02.02-.02.03-.02.02-.02.03-.02.03-.01.03-.01.03-.01.03-.02h.03l.03-.01.03-.01h.03l.03-.01h20.54c.37 0 .66.29.66.64v13.72a.6.6 0 0 1 0 .06v.03l-.01.03-.01.03v.03l-.02.03-.01.03-.01.03-.02.03-.01.03-.02.02a.5.5 0 0 1-.02.03l-.02.02a.12.12 0 0 1-.03.04l-.01.01v.01l-.05.03-.02.02-.03.02-.03.02-.02.01-.03.02-.03.01-.03.01-.03.01-.03.01-.03.01h-.04zm-.74-2.18v-11.53h-18.13l8.54 7.46 7.32-6.12c.28-.23.69-.2.92.07.23.27.2.67-.08.9l-4.28 3.59.01.01zm-18.27.91h17.35l-5.7-5.62a.5.5 0 0 1-.08-.1l-2.48 2.08a.66.66 0 0 1-.85-.01l-2.43-2.12a.88.88 0 0 1-.12.15zm-10.43-7.05c0-.36.3-.64.65-.64h10.99c.36 0 .65.28.65.64 0 .35-.3.64-.65.64h-10.99a.65.65 0 0 1-.65-.64zm1.14-3.54c0-.35.29-.64.65-.64h4.93c.36 0 .65.29.65.64 0 .35-.29.64-.65.64h-4.93a.65.65 0 0 1-.65-.64zm4.93 9.6c0 .35-.29.64-.65.64h-4.77a.65.65 0 0 1-.65-.64c0-.36.3-.64.65-.64h4.77c.36 0 .65.28.65.64z"/></defs><g transform="translate(-924 -1108)"><use xlink:href="#a"/></g></svg>