<svg xmlns="http://www.w3.org/2000/svg" xmlns:xlink="http://www.w3.org/1999/xlink" width="29" height="40" viewBox="0 0 29 40"><defs><path id="a" d="M443 440.89v38.22c0 .5-.4.89-.89.89h-23.16a4.96 4.96 0 0 1-4.95-4.96v-30.08a4.96 4.96 0 0 1 4.95-4.96h23.16c.5 0 .89.4.89.89zm-24.93 8.95a4.93 4.93 0 0 1-2.3-1.08v26.28c0 1.45.97 2.67 2.3 3.06zm20.25-1.7a4.95 4.95 0 0 1 0-6.36h-19.37a3.18 3.18 0 0 0 0 6.36zm-6.06 1.78v5.23l1.07-.8a.89.89 0 0 1 1.06 0l1.06.79v-5.22zm8.96 28.3v-28.3h-3.99v6.99a.9.9 0 0 1-1.42.7l-1.95-1.44-1.96 1.46a.88.88 0 0 1-.92.08.89.89 0 0 1-.5-.8v-6.99h-10.64v28.3zm0-30.2v-6.11a3.19 3.19 0 0 0 0 6.1zm-5.45 14.16c0 .49-.4.88-.88.88h-8.71a.89.89 0 0 1 0-1.77h8.7c.5 0 .9.4.9.88zm2.49 5.57c0 .49-.4.88-.9.88H423.7a.89.89 0 0 1 0-1.77h13.67c.49 0 .89.4.89.89z"/></defs><g transform="translate(-414 -440)"><use xlink:href="#a"/></g></svg>