<svg xmlns="http://www.w3.org/2000/svg" xmlns:xlink="http://www.w3.org/1999/xlink" width="17" height="17" viewBox="0 0 17 17"><defs><path id="a" d="M281.7 61.75a.94.94 0 0 1-.63.25c-.26 0-.5-.1-.67-.27l-4.22-4.24a7.2 7.2 0 0 1-4.07 1.24 7 7 0 0 1-7.11-6.87 7 7 0 0 1 7.1-6.86 7 7 0 0 1 7.11 6.86 6.7 6.7 0 0 1-1.66 4.42l4.19 4.2c.35.36.34.93-.03 1.27zm-14.85-9.89c0 2.8 2.36 5.08 5.25 5.08 2.9 0 5.26-2.28 5.26-5.08 0-2.8-2.36-5.07-5.26-5.07a5.17 5.17 0 0 0-5.25 5.07z"/></defs><g transform="translate(-265 -45)"><use fill="#0c00ff" xlink:href="#a"/></g></svg>