<svg xmlns="http://www.w3.org/2000/svg" xmlns:xlink="http://www.w3.org/1999/xlink" width="34" height="34" viewBox="0 0 34 34"><defs><path id="a" d="M1212.03 1979.04a1 1 0 1 1 0 1.99 1 1 0 0 1 0-1.99zm-20.06 0a1 1 0 1 1 0 0zm27.03-10.96a3 3 0 0 1-1.99 2.82v13.12a4.99 4.99 0 0 1-4.98 4.98h-8.1a4.98 4.98 0 0 1-3.15-1.12 10.97 10.97 0 0 1-9.8-19.6v-7.47a3 3 0 0 1 .99-5.81h7.97a3 3 0 0 1 1 5.81v4.28h15.07a3 3 0 0 1 2.99 2.99zm-31.31 6.49a.8.8 0 0 0 .67-.25c2.19-2 5.13-2 7.32 0 .99.9 2.15 1.19 3.27.82v-4.24a2.99 2.99 0 0 1 0-5.63v-4.29h-1a1 1 0 0 1-1-1 1 1 0 0 1 1-1h1.99a1 1 0 1 0 0-1.99h-7.97a1 1 0 0 0 0 1.99h1.99a1 1 0 0 1 1 1 1 1 0 0 1-1 1h-.99v7.93c0 .4-.24.76-.6.91a8.98 8.98 0 0 0-4.68 4.75zm11.8 11.71a4.92 4.92 0 0 1-.54-2.26v-6.82a5.3 5.3 0 0 1-4.61-1.41c-1.43-1.3-3.21-1.3-4.63 0a2.8 2.8 0 0 1-2.58.7 8.93 8.93 0 0 0 12.36 9.79zm15.53-9.25a4.84 4.84 0 0 1-3.97-.95 5 5 0 0 1-6.08.02 4.8 4.8 0 0 1-4.03.91v7.01a3 3 0 0 0 2.99 2.99h8.1a3 3 0 0 0 2.99-2.99zm1.99-8.95a1 1 0 0 0-1-.99h-16.07a1 1 0 1 0 0 1.99h1.99a1 1 0 1 1 0 1.99h-.99v3.88c1.45.53 3.04-.21 3.04-.89a1 1 0 1 1 1.99 0c0 .49.87 1.07 1.99 1.07 1.23 0 2.12-.64 2.12-1.07a1 1 0 0 1 1-1 1 1 0 0 1 1 1c0 .65 1.49 1.38 2.94.92v-3.91h-1a1 1 0 1 1 0-1.99h1.99a1 1 0 0 0 1-1zm-8.1 13.95a3 3 0 1 1-5.98 0 3 3 0 0 1 5.98 0zm-2 0a1 1 0 1 0-1.99-.01 1 1 0 0 0 1.99.01z"/></defs><g transform="translate(-1185 -1955)"><use xlink:href="#a"/></g></svg>