<svg xmlns="http://www.w3.org/2000/svg" xmlns:xlink="http://www.w3.org/1999/xlink" width="16" height="12" viewBox="0 0 16 12"><defs><path id="a" d="M1379 429.02v3.99h-7v-3.99zm-1.15 2.14l-1-1a.49.49 0 0 0-.7 0l-.65.64-.65-.63a.49.49 0 0 0-.7 0l-1 1c-.2.18-.2.5 0 .69.19.2.51.2.7 0l.65-.64.65.64c.19.2.51.2.7 0l.65-.64.65.64c.09.1.22.15.35.15.13 0 .26-.05.35-.15.2-.19.2-.5 0-.7zM1384 438h-12.5a2.52 2.52 0 0 1-2.5-2.52v-8.98c0-.28.22-.5.5-.5h12c.28 0 .5.22.5.5v9.47c0 1.1.9 2.03 2 2.03zm-4-2.5a.5.5 0 0 0-.5-.5h-8a.5.5 0 0 0-.5.5c0 .27.22.5.5.5h8a.5.5 0 0 0 .5-.5zm0-6.98a.5.5 0 0 0-.5-.5h-8a.5.5 0 0 0-.5.5v4.98c0 .28.22.5.5.5h8a.5.5 0 0 0 .5-.5zm5-.5v7.95c0 .55-.45 1.03-1 1.03s-1-.48-1-1.03v-7.95z"/></defs><g transform="translate(-1369 -426)"><use fill="#b5b5b5" xlink:href="#a"/></g></svg>