<svg xmlns="http://www.w3.org/2000/svg" xmlns:xlink="http://www.w3.org/1999/xlink" width="18" height="18" viewBox="0 0 18 18"><defs><path id="a" d="M433.77 489.23a1.67 1.67 0 1 1-2.36 2.35 1.67 1.67 0 0 1 2.36-2.35zm-.78.78a.55.55 0 0 0-.79 0 .56.56 0 1 0 .79 0zm1.96 4.33L433.3 496l-.53 4.2-3.09 3.09-1.04-2.63-.59.59-.84-.85-1.84 1.31-4.07-4.07 1.3-1.84-.84-.84.59-.59-2.63-1.04 3.1-3.1 4.19-.52 1.66-1.66a6.97 6.97 0 0 1 7.54-1.57l.23.09.1.23c1 2.62.38 5.58-1.58 7.54zm-11.76-.82l2.53-2.53-2.4.3-1.63 1.63zm3.2 6.08l-3-3-.65.92 2.74 2.74zm5.62-2.32l-2.53 2.53.6 1.5 1.63-1.63zm3.56-9.85a5.86 5.86 0 0 0-6.12 1.4l-6.13 6.13 1.97 1.96 4.33-4.32.78.79-4.32 4.32 1.96 1.97 6.13-6.13a5.95 5.95 0 0 0 1.4-6.12zm-15 14.21l1.57-1.57.8.79-1.58 1.57zm2.36 2.36l-.78-.79 1.57-1.57.78.79zm-3.93-3.93l1.57-1.58.79.8-1.57 1.56z"/></defs><g transform="translate(-419 -486)"><use xlink:href="#a"/></g></svg>