<svg xmlns="http://www.w3.org/2000/svg" xmlns:xlink="http://www.w3.org/1999/xlink" width="10" height="11" viewBox="0 0 10 11"><defs><path id="a" d="M1380.13 576.3a15.93 15.93 0 0 0-2.42-1.54.1.1 0 0 1-.05-.09v-1.02c.15-.27.25-.55.29-.8.11-.01.25-.17.4-.74.21-.78-.01-.9-.2-.88.04-.1.07-.21.08-.32.32-2.02-.63-2.08-.63-2.08s-.15-.32-.57-.56c-.28-.17-.67-.3-1.17-.26-.17 0-.33.04-.47.1a2.78 2.78 0 0 0-1.05.73 2.21 2.21 0 0 0-.57 2.07l.08.32c-.19-.01-.41.1-.2.88.16.57.3.73.41.74.04.25.13.54.28.8v1.02a.1.1 0 0 1-.05.09c-.24.12-1.31.68-2.42 1.54a2.32 2.32 0 0 0-.87 1.83v.28c0 .32.25.59.56.59H1380.44c.31 0 .56-.27.56-.59v-.28c.01-.72-.32-1.4-.87-1.83z"/></defs><g transform="translate(-1371 -568)"><use fill="#b9b9b9" xlink:href="#a"/></g></svg>