<svg xmlns="http://www.w3.org/2000/svg" xmlns:xlink="http://www.w3.org/1999/xlink" width="12" height="12" viewBox="0 0 12 12"><defs><path id="a" d="M610.73 705.5l-1.85-1.86a.96.96 0 0 0-1.36.02l-.94.94-.18-.1a9.28 9.28 0 0 1-2.25-1.63c-.85-.86-1.3-1.67-1.62-2.26l-.1-.18.62-.62.3-.31c.4-.39.4-1 .03-1.37l-1.85-1.86a.96.96 0 0 0-1.36.03l-.52.52.01.02a3.05 3.05 0 0 0-.62 1.53c-.24 2.04.68 3.9 3.2 6.42 3.47 3.48 6.28 3.22 6.4 3.2a3.09 3.09 0 0 0 1.52-.62l.02.01.53-.52c.38-.38.39-1 .02-1.36z"/></defs><g transform="translate(-599 -696)"><use xlink:href="#a"/></g></svg>