<svg xmlns="http://www.w3.org/2000/svg" xmlns:xlink="http://www.w3.org/1999/xlink" width="26" height="38" viewBox="0 0 26 38"><defs><path id="a" d="M399 4443.3v32.84c0 .27-.13.52-.34.69a.89.89 0 0 1-.76.14l-11.9-3.38-11.9 3.38a.88.88 0 0 1-.76-.14.88.88 0 0 1-.34-.69v-32.84c0-.39.26-.72.63-.83l12.11-3.43.02-.01h.02l.09-.02h.02l.11-.01.1.01h.04l.08.02h.02l12.13 3.44c.37.11.63.44.63.83zm-24.27 31.7l10.4-2.95V4441l-10.4 2.95zm22.54 0v-31.05l-10.4-2.95v31.05zm-8.65-30.1a.86.86 0 0 1 1.07-.59l5.23 1.48a.86.86 0 0 1-.23 1.69.96.96 0 0 1-.24-.03l-5.23-1.49a.85.85 0 0 1-.6-1.06zm0 4.3a.86.86 0 0 1 1.07-.59l5.23 1.48a.86.86 0 0 1-.23 1.69.65.65 0 0 1-.24-.04l-5.23-1.48a.85.85 0 0 1-.6-1.06zm0 4.3a.86.86 0 0 1 1.07-.59l5.23 1.48a.86.86 0 0 1-.23 1.69.65.65 0 0 1-.24-.04l-5.23-1.48a.85.85 0 0 1-.6-1.06zm-.03 15.88v-11.35c0-.27.13-.52.34-.68.22-.17.5-.22.76-.14l5.23 1.48c.37.1.63.44.63.83v11.34a.86.86 0 0 1-1.1.83l-5.23-1.48a.87.87 0 0 1-.63-.83zm1.72-.65l3.51 1v-9.57l-3.5-.99zm-6.93.42a.86.86 0 0 1-.6 1.06l-5.23 1.48a.96.96 0 0 1-.24.03.86.86 0 0 1-.23-1.68l5.23-1.49a.87.87 0 0 1 1.07.6zm-6.9-22.3a.86.86 0 0 1 .6-1.06l5.23-1.48a.86.86 0 1 1 .47 1.65l-5.23 1.49a.87.87 0 0 1-1.07-.6zm6.9 2.35a.86.86 0 0 1-.6 1.06l-5.23 1.48a.65.65 0 0 1-.24.04.86.86 0 0 1-.24-1.69l5.24-1.48a.86.86 0 0 1 1.07.59z"/></defs><g transform="translate(-373 -4439)"><use xlink:href="#a"/></g></svg>