<svg xmlns="http://www.w3.org/2000/svg" xmlns:xlink="http://www.w3.org/1999/xlink" width="31" height="31" viewBox="0 0 31 31"><defs><path id="a" d="M1229 1094.76v1.24h-31v-1.24l14.59-21.89V1065h6.66v5.45h-4.84v2.42zm-14.59-26.13h3.03v-1.81h-3.03zm-7.04 15.35l.68.68 1.82-1.81 1.81 1.81 1.82-1.81 1.82 1.81 1.81-1.81 1.82 1.81.68-.68-6.13-9.2zm19.07 10.2l-5.78-8.66-1.71 1.71-1.82-1.81-1.81 1.81-1.82-1.81-1.82 1.81-1.81-1.81-1.82 1.81-1.71-1.71-5.78 8.66z"/></defs><g transform="translate(-1198 -1065)"><use xlink:href="#a"/></g></svg>