<svg xmlns="http://www.w3.org/2000/svg" xmlns:xlink="http://www.w3.org/1999/xlink" width="17" height="25" viewBox="0 0 17 25"><defs><path id="a" d="M1527 263.35c0 .26-.1.48-.28.67a.91.91 0 0 1-.67.29h-6.33l-.75 7.25a.58.58 0 0 1-.15.31.43.43 0 0 1-.31.13h-.01c-.27 0-.42-.13-.47-.4l-1.12-7.3h-5.96a.91.91 0 0 1-.67-.28.92.92 0 0 1-.28-.67c0-1.24.39-2.35 1.16-3.33.77-.99 1.64-1.48 2.62-1.48v-7.7c-.51 0-.96-.19-1.33-.57a1.88 1.88 0 0 1-.56-1.35c0-.52.19-.97.56-1.35a1.8 1.8 0 0 1 1.33-.57h9.44c.51 0 .96.19 1.33.57.37.38.56.83.56 1.35 0 .52-.19.97-.56 1.35a1.8 1.8 0 0 1-1.33.58v7.69c.97 0 1.85.5 2.62 1.48s1.16 2.1 1.16 3.33zm-9.92-12.02a.46.46 0 0 0-.13-.35.46.46 0 0 0-.34-.13.46.46 0 0 0-.34.13.46.46 0 0 0-.13.35v6.73c0 .14.04.25.13.34.09.1.2.14.34.14s.25-.05.34-.14c.09-.09.13-.2.13-.34z"/></defs><g transform="translate(-1510 -247)"><use xlink:href="#a"/></g></svg>