<?xml version="1.0" encoding="UTF-8" standalone="no"?>
<svg
   xmlns:dc="http://purl.org/dc/elements/1.1/"
   xmlns:cc="http://creativecommons.org/ns#"
   xmlns:rdf="http://www.w3.org/1999/02/22-rdf-syntax-ns#"
   xmlns:svg="http://www.w3.org/2000/svg"
   xmlns="http://www.w3.org/2000/svg"
   viewBox="0 0 1348.3657 838.08203"
   height="838.08203"
   width="1348.3657"
   version="1.1"
   id="svg2">
  <metadata
     id="metadata8">
    <rdf:RDF>
      <cc:Work
         rdf:about="">
        <dc:format>image/svg+xml</dc:format>
        <dc:type
           rdf:resource="http://purl.org/dc/dcmitype/StillImage" />
        <dc:title></dc:title>
      </cc:Work>
    </rdf:RDF>
  </metadata>
  <defs
     id="defs6" />
  <path
     id="path3338"
     d="m 102.89812,837.21762 c -2.0625,-0.5794 -7.6835,-1.96978 -12.4912,-3.08976 -20.3602,-4.74305 -40.0243,-15.93367 -55.7288,-31.71467 C 19.54182,787.20311 9.8772197,770.97474 3.2783197,749.68796 l -2.88019999,-9.29091 -0.3344,-321.25 c -0.2107,-202.38846 0.1075,-322.174988 0.8602,-323.749998 0.65699999,-1.375 2.12559999,-5.875 3.26359999,-10 C 12.84192,54.025132 38.36112,24.477522 68.99572,10.358418 c 4.8963,-2.2566454 12.2774,-5.0340354 16.4024,-6.1719784 4.125,-1.137944 8.625,-2.60604 10,-3.26243601 1.5796,-0.754085 214.644,-1.070764 578.75,-0.8602 l 576.24998,0.333248 9.2909,2.88018101 c 21.3217,6.609736 37.5797,16.3004294 52.6791,31.3998194 19.103,19.10299 28.014,36.71861 34.826,68.844998 1.0944,5.16086 1.3574,84.4788 1.0549,318.125 -0.383,295.80685 -0.5158,311.71515 -2.6754,320.625 -11.6316,47.98564 -45.2949,81.65004 -93.3005,93.30385 -8.9902,2.18245 -32.6915,2.28446 -577.49998,2.48551 -312.4687,0.11525 -569.8125,-0.2644 -571.875,-0.84378 z m 708.9971,-27.67787 c 11.2597,-20.68791 37.1056,-33.47514 60.6096,-29.98664 12.1509,1.80346 25.0282,8.19853 33.5183,16.64569 8.4171,8.37459 13.1052,16.77995 16.0573,28.78965 l 2.2475,9.14319 1.5116,-7.68312 c 5.9376,-30.18026 36.14,-51.42602 66.6653,-46.89541 12.15088,1.80346 25.02818,8.19853 33.51828,16.64569 8.4171,8.37459 13.1052,16.77995 16.0573,28.78965 l 2.2475,9.14319 1.5116,-7.68312 c 5.9376,-30.18026 36.14,-51.42602 66.6653,-46.89541 12.1509,1.80346 25.0282,8.19853 33.5183,16.64569 8.4171,8.37459 13.1052,16.77995 16.0573,28.78965 l 2.2475,9.14319 1.5116,-7.68312 c 5.9376,-30.18026 36.14,-51.42602 66.6653,-46.89541 9.6821,1.43703 24.6228,8.01153 30.0263,13.21264 4.7708,4.5922 5.7053,4.09689 5.0584,-2.6812 -0.838,-8.78194 1.594,-19.7689 6.6584,-30.07945 8.1816,-16.65694 23.5757,-28.21851 42.1,-31.61871 l 8.4497,-1.55099 -7.1997,-4.55641 c -29.0812,-18.40413 -37.2623,-55.95727 -18.3859,-84.39572 8.3205,-12.53533 22.175,-21.78816 37.3247,-24.92756 l 7.6114,-1.57725 -7.2032,-1.52009 c -24.2498,-5.11743 -43.3624,-25.12162 -47.1797,-49.3805 -4.9441,-31.42078 15.5864,-61.05983 46.7715,-67.52216 l 7.6114,-1.57725 -7.2032,-1.52009 c -11.3883,-2.40327 -23.3138,-9.06156 -31.3843,-17.52263 -32.2515,-33.81239 -14.7692,-89.90048 30.9761,-99.38003 l 7.6114,-1.57725 -7.2032,-1.52009 c -11.3883,-2.40327 -23.3138,-9.06156 -31.3843,-17.52263 -32.2515,-33.81239 -14.7692,-89.90048 30.9761,-99.38003 l 7.6114,-1.57725 -7.2032,-1.52008 c -41.6972,-8.79936 -61.2715,-56.51258 -37.7329,-91.9751 7.2275,-10.88875 17.9296,-18.88045 31.7751,-23.72786 l 4.411,-1.54434 -7.5,-1.53742 c -33.2514,-6.81619 -54.7007,-40.406718 -46.3525,-72.590018 0.9749,-3.75827 1.5919,-7.01385 1.3711,-7.23461 -0.2207,-0.22076 -2.6887,0.76554 -5.4844,2.19177 -16.9192,8.63155 -39.9725,8.28157 -56.772,-0.86187 -13.0418,-7.09825 -24.936,-22.63641 -28.462,-37.18188 -2.0536,-8.4715924 -3.248,-9.3526514 -4.2931,-3.166849 -1.5512,9.181069 -8.8126,21.745299 -16.8892,29.222799 -34.488,31.92987 -88.6404,15.50982 -99.2089,-30.08207 l -1.6745,-7.2238804 -1.4228,5 c -0.7825,2.7500004 -1.4259,5.6275504 -1.4297,6.3945504 -0.023,4.55196 -9.4974,19.64666 -16.2641,25.9114 -34.4881,31.92987 -88.64038,15.50982 -99.20888,-30.08207 l -1.6745,-7.2238804 -1.4228,5 c -0.7825,2.7500004 -1.4259,5.6275504 -1.4297,6.3945504 -0.023,4.55196 -9.4974,19.64666 -16.2641,25.9114 -34.488,31.92987 -88.6404,15.50982 -99.2089,-30.08207 l -1.6745,-7.2238804 -1.4228,5 c -0.7825,2.7500004 -1.4259,5.6275504 -1.4297,6.3945504 -0.023,4.55196 -9.4974,19.64666 -16.2641,25.9114 -34.488,31.92987 -88.6404,15.50982 -99.2089,-30.08207 l -1.6745,-7.2238804 -1.4228,5 c -0.7825,2.7500004 -1.4259,5.6275504 -1.4297,6.3945504 -0.023,4.55196 -9.4974,19.64666 -16.2641,25.9114 -34.488,31.92987 -88.6404,15.50982 -99.2089,-30.08207 l -1.6745,-7.2238804 -1.4228,5 c -0.7825,2.7500004 -1.4259,5.6275504 -1.4297,6.3945504 -0.023,4.55196 -9.4974,19.64666 -16.2641,25.9114 -34.488,31.92987 -88.6404,15.50982 -99.2089,-30.08207 l -1.6745,-7.2238804 -1.4228,5 c -0.7825,2.7500004 -1.4259,5.6275504 -1.4297,6.3945504 -0.023,4.55196 -9.4974,19.64666 -16.2641,25.9114 -34.488,31.92987 -88.6404,15.50982 -99.2089,-30.08207 l -1.6745,-7.2238804 -1.4228,5 c -0.7825,2.7500004 -1.4259,5.6275504 -1.4297,6.3945504 -0.023,4.55196 -9.4974,19.64666 -16.2641,25.9114 -34.488,31.92987 -88.6404,15.50982 -99.2089,-30.08207 l -1.6745,-7.2238804 -1.4228,5 c -0.7825,2.7500004 -1.4259,5.6275504 -1.4297,6.3945504 0,0.76701 -1.9918,5.36187 -4.4176,10.21082 -8.1181,16.2272 -25.4002,28.72255 -43.6336,31.54817 -25.108,3.89098 -51.0127,-8.91266 -61.7712,-30.53097 -1.6172,-3.24967 -3.2017,-5.64713 -3.5211,-5.3277 -0.3195,0.31943 -1.3599,4.30427 -2.312,8.85521 -5.9244,28.31521 -33.6978,49.13581 -62.164,46.60181 -3.9531,-0.3519 -7.1875,-0.41321 -7.1875,-0.13625 0,0.27697 1.9403,3.20427 4.3117,6.50512 16.7395,23.300218 14.9236,54.594808 -4.3945,75.731908 l -6.2669,6.85689 5.7625,5.76241 c 7.364,7.36402 13.8323,20.95468 15.6545,32.89199 4.6253,30.30039 -16.1346,60.15479 -46.3336,66.6313 l -6.7351003,1.44444 9.3820003,2.70604 c 5.16,1.48832 12.1449,4.32521 15.5217,6.3042 14.7727,8.65737 25.4098,24.86472 28.165,42.91402 4.6253,30.30039 -16.1346,60.15479 -46.3336,66.6313 l -6.7351003,1.44444 9.3820003,2.70604 c 5.16,1.48832 12.1449,4.32521 15.5217,6.3042 14.7727,8.65737 25.4098,24.86472 28.165,42.91402 4.6253,30.30039 -16.1346,60.15479 -46.3336,66.6313 l -6.7351003,1.44444 9.3820003,2.70604 c 5.16,1.48832 12.1449,4.32521 15.5217,6.3042 14.7727,8.65737 25.4098,24.86472 28.165,42.91402 4.6253,30.30039 -16.1346,60.15479 -46.3336,66.6313 l -6.7351003,1.44444 9.3820003,2.70604 c 18.0828,5.21562 30.6899,15.50981 38.0209,31.04573 11.4497,24.26399 6.8907,50.87553 -11.8798,69.34424 l -7.3322,7.21429 9.2804,1.44474 c 24.709,3.84661 44.2297,21.68022 49.8554,45.5466 1.0382,4.40476 1.9139,9.97741 1.9458,12.38366 l 0.058,4.375 2.7315,-3.75 c 8.3681,-11.48816 23.5445,-20.61266 38.4722,-23.13054 23.4347,-3.95279 48.7947,7.88705 60.8107,28.39078 1.8863,3.21872 4.6517,10.08925 6.1454,15.26782 l 2.7157,9.4156 1.4784,-7.12117 c 6.1531,-29.63972 36.4219,-50.63788 66.5486,-46.16643 17.4753,2.59371 34.4811,13.87681 43.1119,28.60418 1.8863,3.21872 4.6517,10.08925 6.1454,15.26782 l 2.7157,9.4156 1.4784,-7.12117 c 6.1531,-29.63972 36.4219,-50.63788 66.5486,-46.16643 17.4753,2.59371 34.4811,13.87681 43.1119,28.60418 1.8863,3.21872 4.6517,10.08925 6.1454,15.26782 l 2.7157,9.4156 1.4784,-7.12117 c 6.1531,-29.63972 36.4219,-50.63788 66.5486,-46.16643 17.4753,2.59371 34.4811,13.87681 43.1119,28.60418 1.8863,3.21872 4.6517,10.08925 6.1454,15.26782 l 2.7157,9.4156 1.4784,-7.12117 c 6.1531,-29.63972 36.4219,-50.63788 66.5486,-46.16643 17.4753,2.59371 34.4811,13.87681 43.1119,28.60418 1.8863,3.21872 4.6517,10.08925 6.1454,15.26782 l 2.7157,9.4156 1.4784,-7.12117 c 4.8215,-23.225 24.6416,-41.86979 48.8498,-45.95303 30.9043,-5.2127 61.6096,15.97525 67.6507,46.68201 l 1.5116,7.68312 2.2475,-9.14319 c 1.2361,-5.02875 3.7918,-11.98066 5.6794,-15.4487 z M 223.67412,627.11296 c -9.4593,-1.57116 -22.8695,-6.43539 -31.1943,-11.31492 -9.1052,-5.33708 -25.8956,-22.12749 -31.2327,-31.23274 -5.1394,-8.76801 -9.6648,-21.5956 -11.3927,-32.29325 -1.8029,-11.16139 -1.8029,-256.33861 0,-267.5 3.2178,-19.9217 10.8573,-34.68859 25.5437,-49.375 14.6864,-14.68641 29.4533,-22.32594 49.375,-25.54374 11.2177,-1.81191 316.2824,-1.81191 327.5,0 19.9217,3.2178 34.6886,10.85733 49.375,25.54374 14.6864,14.68641 22.3259,29.4533 25.5437,49.375 0.8539,5.28651 1.3124,52.0123 1.3124,133.75 0,81.7377 -0.4585,128.46349 -1.3124,133.75 -3.2178,19.9217 -10.8573,34.68859 -25.5437,49.375 -14.6864,14.68641 -29.4533,22.32594 -49.375,25.54374 -10.1249,1.6354 -318.7244,1.5623 -328.599,-0.0779 z m 326.7517,-60.92976 c 6.4188,-2.91583 12.8426,-9.33968 15.7584,-15.75841 2.1634,-4.76222 2.2855,-11.73173 2.3115,-131.96982 l 0.028,-126.94206 -3.1861,-6.39367 c -1.7524,-3.51653 -5.1276,-7.87452 -7.5005,-9.68443 -9.6802,-7.38343 1,-6.97023 -170.9681,-6.61446 l -157.917,0.3267 -6.1186,3.78305 c -3.7919,2.34444 -7.5573,6.10978 -9.9017,9.90156 l -3.783,6.11852 -0.33,128.17506 -0.33,128.17506 3.1734,6.48606 c 3.2493,6.64139 8.6978,11.73167 15.9145,14.86809 3.4397,1.49491 28.4341,1.77308 160.9471,1.79123 149.2863,0.0204 157.1182,-0.089 161.9027,-2.26248 z m 243.2483,60.92976 c -9.4593,-1.57116 -22.8695,-6.43539 -31.1943,-11.31492 -9.1052,-5.33708 -25.8956,-22.12749 -31.2327,-31.23274 -9.6877,-16.52771 -14.2142,-38.30663 -11.7654,-56.60885 1.6793,-12.55095 6.0473,-25.72235 11.7654,-35.47765 5.3371,-9.10525 22.1275,-25.89566 31.2327,-31.23274 16.5278,-9.68776 38.3067,-14.21422 56.6089,-11.76541 20.2265,2.70629 35.9517,10.00059 50.4815,23.4164 26.1813,24.17415 35.3511,61.53671 23.4802,95.67136 -14.1145,40.58643 -56.6451,65.64204 -99.3763,58.54455 z m 26.825,-60.96256 c 22.0968,-10.0358 24.2255,-40.53903 3.714,-53.2203 -5.4162,-3.34859 -7.2181,-3.78305 -15.69,-3.78305 -8.4719,0 -10.2738,0.43446 -15.69,3.78305 -19.9495,12.33386 -18.7784,41.90841 2.0709,52.29809 8.0698,4.02134 17.9849,4.37858 25.5951,0.92221 z m 138.024,-27.62835 0,-30 30,0 29.99998,0 0,30 0,30 -29.99998,0 -30,0 0,-30 z m 119.99998,0 0,-30 60,0 60,0 0,30 0,30 -60,0 -60,0 0,-30 z m -359.99998,-180 0,-30 135,0 135,0 0,30 0,30 -135,0 -135,0 0,-30 z m 0,-120 0,-30 240,0 239.99998,0 0,30 0,30 -239.99998,0 -240,0 0,-30 z"
     style="fill:#000000" />
</svg>
