<svg xmlns="http://www.w3.org/2000/svg" xmlns:xlink="http://www.w3.org/1999/xlink" width="41" height="34" viewBox="0 0 41 34"><defs><path id="a" d="M414 3705.22v15.45a4.37 4.37 0 0 1-4.4 4.33h-32.2a4.37 4.37 0 0 1-4.4-4.33v-27.36l3.51-2.31 2.64 1.73 2.91-1.73 2.64 1.73 2.64-1.73 2.92 1.73 2.63-1.73 2.64 1.73 2.64-1.73 2.64 1.73 2.64-1.73 3.52 2.31v11.91zm-7.9 18.05a4.23 4.23 0 0 1-.9-2.6v-26.43l-1.75-1.15-2.64 1.73-2.64-1.73-2.64 1.73-2.64-1.73-2.63 1.73-2.92-1.73-2.64 1.73-2.64-1.73-2.91 1.73-2.64-1.74-1.75 1.15v26.44c0 1.44 1.18 2.6 2.63 2.6zm6.14-16.31h-5.27v13.71c0 1.44 1.18 2.6 2.64 2.6a2.62 2.62 0 0 0 2.63-2.6zm-34.85-9.86h25.18v6.12H377.4zm1.76 1.73v2.66h21.66v-2.66zm7.55 16.97h-9.3v-10.11h9.3zm-1.75-8.39h-5.8v6.67h5.8zm5.27.87v-1.72h12.34v1.72zm0 5.78v-1.72h6.44v1.72zm-12.81 5.82v-1.75h25.16v1.75z"/></defs><g transform="translate(-373 -3691)"><use xlink:href="#a"/></g></svg>