<svg xmlns="http://www.w3.org/2000/svg" xmlns:xlink="http://www.w3.org/1999/xlink" width="15" height="13" viewBox="0 0 15 13"><defs><path id="a" d="M1869.59 47.24c-.6.38-1.26.65-1.96.8a2.98 2.98 0 0 0-2.24-1.04c-1.7 0-3.08 1.47-3.08 3.28 0 .26.03.51.08.75a8.58 8.58 0 0 1-6.35-3.43 3.48 3.48 0 0 0-.41 1.65c0 1.14.54 2.14 1.37 2.73a2.95 2.95 0 0 1-1.4-.41v.04a3.24 3.24 0 0 0 2.47 3.22 2.94 2.94 0 0 1-1.39.06 3.12 3.12 0 0 0 2.88 2.28 5.96 5.96 0 0 1-4.56 1.36 8.32 8.32 0 0 0 4.72 1.47c5.66 0 8.75-5 8.75-9.34l-.01-.42a6.3 6.3 0 0 0 1.54-1.7 5.8 5.8 0 0 1-1.77.52 3.26 3.26 0 0 0 1.36-1.82z"/></defs><g transform="translate(-1855 -47)"><use fill="#2d6dfc" xlink:href="#a"/></g></svg>