<svg xmlns="http://www.w3.org/2000/svg" xmlns:xlink="http://www.w3.org/1999/xlink" width="21" height="12" viewBox="0 0 21 12"><defs><path id="a" d="M1744.09 56.36c-.46-.54-.98-1.03-1.48-1.5l-.54-.51c-.51-.5-.53-.68-.13-1.24.28-.39.58-.78.87-1.15l.78-1.05.06-.07c.49-.67 1-1.37 1.27-2.21.07-.23.15-.55-.02-.83-.17-.27-.5-.35-.73-.4a2.09 2.09 0 0 0-.34-.01h-3.26c-.48 0-.81.22-1 .7-.18.44-.38.91-.61 1.37-.44.9-1.02 1.94-1.84 2.8l-.04.04c-.09.1-.2.22-.28.22h-.05c-.17-.07-.28-.48-.28-.67v-3.7-.04c-.08-.6-.27-.97-.95-1.1l-.06-.01h-3.36c-.55 0-.85.22-1.13.55-.08.09-.24.27-.16.5.08.22.34.27.43.28.42.08.65.34.72.78.12.77.13 1.6.05 2.59-.03.28-.08.5-.15.67-.02.05-.09.18-.15.18-.02 0-.08 0-.19-.08a2.8 2.8 0 0 1-.68-.74 17.69 17.69 0 0 1-1.94-3.56c-.2-.49-.58-.77-1.07-.77a100.57 100.57 0 0 0-2.92 0c-.39 0-.67.12-.81.34-.14.23-.13.52.03.88a35.08 35.08 0 0 0 3.8 6.7 9.56 9.56 0 0 0 2.95 2.72 7.75 7.75 0 0 0 4.42.95c.86-.04 1.18-.35 1.22-1.18.02-.43.07-.87.28-1.25.13-.24.26-.24.3-.24a.6.6 0 0 1 .28.1c.18.12.35.29.48.43l.37.4c.26.3.54.6.82.89.63.63 1.32.9 2.12.85h2.98a.87.87 0 0 0 .7-.45c.19-.32.18-.74-.01-1.1-.22-.43-.5-.79-.75-1.08z"/></defs><g transform="translate(-1724 -47)"><use fill="#2d6dfc" xlink:href="#a"/></g></svg>