<svg xmlns="http://www.w3.org/2000/svg" xmlns:xlink="http://www.w3.org/1999/xlink" width="83" height="65" viewBox="0 0 83 65"><defs><path id="a" d="M485 176.03a8.76 8.76 0 0 1-3.73 6.75L459 196.82a6.87 6.87 0 0 1-3.61 1.18c-.77 0-1.49-.18-2.14-.54-1.63-.9-2.52-2.75-2.52-5.21 0-4.52 3-9.95 6.81-12.35l23.52-14.83L434.9 136l-24.94 15.71c-2.83 1.79-5.22 6.12-5.22 9.48v.73c0 3.35 2.39 7.68 5.22 9.47l38.18 24.06a1.37 1.37 0 0 1-1.46 2.31L408.5 173.7c-3.64-2.3-6.5-7.48-6.5-11.8v-.73c0-4.3 2.86-9.49 6.5-11.79l25.67-16.17a1.37 1.37 0 0 1 1.46 0l48.73 30.7a1.37 1.37 0 0 1 0 2.32L459 182.21c-3 1.9-5.53 6.49-5.53 10.04 0 1.4.4 2.42 1.1 2.81.7.39 1.79.18 2.97-.56l22.28-14.04a6.03 6.03 0 0 0 2.44-4.43c0-.58-.16-.79-.2-.81-.04-.02-.3-.05-.79.26l-22.97 14.48a1.37 1.37 0 1 1-1.46-2.32l22.98-14.48c1.24-.78 2.54-.9 3.57-.34 1.02.57 1.61 1.73 1.61 3.2zm-19.21-9.8l-31.62-19.92a1.37 1.37 0 0 1 1.46-2.31l31.61 19.92a1.37 1.37 0 0 1-1.45 2.31zm-5.47 3.64l-13.36-8.38a1.37 1.37 0 0 1 1.46-2.32l13.35 8.38a1.37 1.37 0 0 1-1.45 2.32zm-4.02 1.3a1.37 1.37 0 0 1-1.45 2.33l-13.46-8.4a1.37 1.37 0 0 1 1.45-2.33zm-26.36-23.6l13.36 8.39a1.37 1.37 0 0 1 .02 2.3l-3.07 1.99a1.37 1.37 0 1 1-1.48-2.3l1.26-.82-10.81-6.78-8.8 5.54 10.97 6.83 2.3-1.48a1.37 1.37 0 1 1 1.48 2.3l-3.02 1.95a1.37 1.37 0 0 1-1.46.01l-13.56-8.43a1.37 1.37 0 0 1-.01-2.33l11.37-7.16a1.37 1.37 0 0 1 1.45 0zm20.17 29.77c-.25 0-.5-.06-.73-.2l-13.56-8.44a1.37 1.37 0 0 1 1.45-2.33l13.56 8.44a1.37 1.37 0 0 1-.72 2.53zm-36.46-18.6l33.47 20.82a1.37 1.37 0 0 1-1.45 2.33l-33.47-20.83a1.37 1.37 0 0 1 1.45-2.32z"/></defs><g transform="translate(-402 -133)"><use fill="#1f45e8" xlink:href="#a"/></g></svg>