<svg xmlns="http://www.w3.org/2000/svg" xmlns:xlink="http://www.w3.org/1999/xlink" width="40" height="35" viewBox="0 0 40 35"><defs><path id="a" d="M841 488.98v18.26c0 .42-.35.76-.78.76h-38.44a.77.77 0 0 1-.78-.76v-18.26c0-.42.35-.76.78-.76h2.4l1.02-14.51c.03-.4.37-.71.78-.71h4.1c.4 0 .75.31.78.7l1.03 14.52h1.61v-5.33c0-.29.16-.55.43-.68a.8.8 0 0 1 .8.06l7.42 5.22v-4.6c0-.29.16-.55.42-.68a.8.8 0 0 1 .82.06l7.4 5.22v-4.6c0-.29.17-.55.43-.68a.8.8 0 0 1 .81.06l8.65 6.1c.2.13.32.36.32.6zm-35.26-.76h4.58l-.97-13.7h-2.64l-.75 10.65h1.56c.43 0 .78.34.78.76s-.35.77-.78.77h-1.67zm7.76 1.52h-2.34-6.25-2.35v16.74h10.94v-1.52h-4.35a.77.77 0 0 1-.78-.77c0-.42.35-.76.78-.76h4.35v-1.52h-4.35a.77.77 0 0 1-.78-.76c0-.42.35-.76.78-.76h4.35v-1.52h-2.09a.77.77 0 0 1-.78-.76c0-.42.35-.76.78-.76h2.09v-1.52h-4.35a.77.77 0 0 1-.78-.77c0-.42.35-.76.78-.76h4.35v-1.52h-4.35a.77.77 0 0 1-.78-.76c0-.42.35-.76.78-.76h4.35zm25.94-.37l-7.09-4.99v4.6c0 .28-.16.55-.42.68a.8.8 0 0 1-.81-.07l-7.41-5.21v4.6c0 .28-.17.55-.43.68a.8.8 0 0 1-.81-.06l-7.4-5.22v22.1h24.37zm-31.07 8.74c0-.42.35-.76.78-.76h.02c.43 0 .78.34.78.76s-.35.76-.78.76h-.02a.77.77 0 0 1-.78-.76zm16.54-3.05v3.05c0 .42-.35.76-.79.76H821a.77.77 0 0 1-.78-.76v-3.05c0-.42.35-.76.78-.76h3.13c.43 0 .78.34.78.76zm-1.57.77h-1.56v1.52h1.56zm7.03-1.53h3.13c.43 0 .78.34.78.76v3.05c0 .42-.35.76-.78.76h-3.13a.77.77 0 0 1-.78-.76v-3.05c0-.42.35-.76.79-.76zm.79 3.05h1.56v-1.52h-1.56zm-4.25 6.84c0 .43-.35.77-.78.77h-.02a.77.77 0 0 1-.78-.76c0-.42.35-.76.78-.76h.02c.43 0 .78.34.78.76zm-2.26 0c0 .43-.35.77-.78.77H821a.77.77 0 0 1-.78-.76c0-.42.35-.76.78-.76h2.87c.43 0 .78.34.78.76z"/></defs><g transform="translate(-801 -473)"><use xlink:href="#a"/></g></svg>