<svg id="Слой_1" data-name="Слой 1" xmlns="http://www.w3.org/2000/svg" viewBox="0 0 446 135.35"><defs><style>.cls-1{fill:#007aff;}.cls-2{fill:#1f00ff;}.cls-3{fill:#2f2f3f;}</style></defs><title>logo-border</title><path class="cls-1" d="M823,218.83a12.66,12.66,0,0,1,8.45,3.14l41.23,36.46-61.84,54.93V229.51c0-6.42,6-10.68,12.16-10.68m0-7.83a21.05,21.05,0,0,0-13.39,4.72,17.63,17.63,0,0,0-6.6,13.79v98.67l13-9.83,61.84-54.06,6.6-5.87-6.62-5.85-41.23-36.46A20.56,20.56,0,0,0,823,211h0Z" transform="translate(-803 -211)"/><path class="cls-2" d="M934.29,218.83c6.21,0,12.16,4.25,12.16,10.68v98.36c0,5.88-5.4,10.66-12.07,10.66H822.95c-10.75,0-16.14-11.48-8.54-18.19L925.84,222a12.66,12.66,0,0,1,8.45-3.14m0-7.83h0a20.56,20.56,0,0,0-13.63,5.1L809.23,314.47A17.39,17.39,0,0,0,804.17,334c2.84,7.51,10.21,12.36,18.78,12.36H934.38c11,0,19.9-8.29,19.9-18.48V229.51a17.63,17.63,0,0,0-6.6-13.79A21.05,21.05,0,0,0,934.29,211h0Z" transform="translate(-803 -211)"/><path class="cls-3" d="M994.77,267.8a19.47,19.47,0,0,1,0-38.93q6.18,0,9.73,3.75V211.24h9.73v36.94A19.49,19.49,0,0,1,994.77,267.8Zm6.88-12.23a10.59,10.59,0,0,0,0-14.46,9.37,9.37,0,0,0-13.76,0,10.59,10.59,0,0,0,0,14.46A9.45,9.45,0,0,0,1001.65,255.56Z" transform="translate(-803 -211)"/><path class="cls-3" d="M1029,211.24V221h-9.73v-9.73H1029Zm0,17.63V267.8h-9.73V228.87H1029Z" transform="translate(-803 -211)"/><path class="cls-3" d="M1046.4,275.26a11.67,11.67,0,0,0,6.92.7,9.92,9.92,0,0,0,8.33-10.16V264q-3.56,3.75-9.73,3.75a19.46,19.46,0,1,1,19.47-19.31V265.8a19.48,19.48,0,0,1-19.47,19.47q-12.55,0-18.8-10.55l7.62-4.46A11.86,11.86,0,0,0,1046.4,275.26Zm5.51-37.17a9.19,9.19,0,0,0-6.88,3,10.59,10.59,0,0,0,0,14.46,9.37,9.37,0,0,0,13.76,0,10.59,10.59,0,0,0,0-14.46A9.2,9.2,0,0,0,1051.91,238.09Z" transform="translate(-803 -211)"/><path class="cls-3" d="M1085.35,211.24V221h-9.73v-9.73h9.73Zm0,17.63V267.8h-9.73V228.87h9.73Z" transform="translate(-803 -211)"/><path class="cls-3" d="M1100,211.24v17.63h18.14v9.22H1100v8.6q0,5.2,2.15,8.17a7.42,7.42,0,0,0,2.85,2.38,7.76,7.76,0,0,0,3.52.82,10.62,10.62,0,0,0,2.77-.39q2.23-.59,6.25-3.75l5.71,7.93q-6.06,4.53-10.71,5.47a19.6,19.6,0,0,1-4.18.47,15.91,15.91,0,0,1-7.54-1.84,16.92,16.92,0,0,1-6.49-5.47q-4-5.51-4-13.8V211.24H1100Z" transform="translate(-803 -211)"/><path class="cls-3" d="M1153.75,234.57a18.94,18.94,0,0,1,5.71,13.92V267.8h-9.07v-4.53q-3.6,4.53-10.4,4.53A19.47,19.47,0,1,1,1153.75,234.57ZM1140,238.09a9.14,9.14,0,0,0-6.88,3,10.59,10.59,0,0,0,0,14.46,9.45,9.45,0,0,0,13.76,0,10.59,10.59,0,0,0,0-14.46A9.14,9.14,0,0,0,1140,238.09Z" transform="translate(-803 -211)"/><path class="cls-3" d="M1173,211.24v35.45q0,5.2,2.15,8.17a8.84,8.84,0,0,0,2.93,2.62,7.2,7.2,0,0,0,3.6.82,8.85,8.85,0,0,0,1.17-.08,24.33,24.33,0,0,0,6-2.19l3.48,8.64a18.88,18.88,0,0,1-8.64,3.09q-1.68,0-3.17,0a14.14,14.14,0,0,1-6.8-1.68,18,18,0,0,1-6.45-5.63q-4-5.51-4-13.8V211.24H1173Z" transform="translate(-803 -211)"/><path class="cls-3" d="M1004.31,345.59V326a10,10,0,0,0-2.35-6.88,9.15,9.15,0,0,0-13.06,0,10,10,0,0,0-2.35,6.88v19.58h-9.69V326a19.23,19.23,0,0,1,5.2-13.8,17.57,17.57,0,0,1,13.37-5.55,17,17,0,0,1,7.74,1.92,15.12,15.12,0,0,1,6,5.28,14.82,14.82,0,0,1,6-5.28,17,17,0,0,1,7.74-1.92,17.71,17.71,0,0,1,13.41,5.55,19.33,19.33,0,0,1,5.2,13.8v19.58h-9.73V326a10,10,0,0,0-2.35-6.88,9.16,9.16,0,0,0-13.06,0A10,10,0,0,0,1014,326v19.58h-9.73Z" transform="translate(-803 -211)"/><path class="cls-3" d="M1058.38,334.57a11.74,11.74,0,0,0,6.65,2,15.61,15.61,0,0,0,5.75-1.17,10.26,10.26,0,0,0,4.69-3.32l7.31,5.12a18.26,18.26,0,0,1-7.86,6.14,23.81,23.81,0,0,1-9.89,2.23,20.45,20.45,0,0,1-9.93-2.58,19,19,0,0,1-9.46-11.8,19.68,19.68,0,0,1-.67-5.08,19.48,19.48,0,0,1,19.47-19.47,19,19,0,0,1,10.83,3.32q6.06,4.07,8.33,12.2Zm13.88-15.44a8.87,8.87,0,0,0-7.82-4.07,10.3,10.3,0,0,0-8.29,3.83,11.1,11.1,0,0,0-2,9.15Z" transform="translate(-803 -211)"/><path class="cls-3" d="M1102.76,345.59a19.47,19.47,0,0,1,0-38.93q6.18,0,9.73,3.75V289h9.73V326A19.48,19.48,0,0,1,1102.76,345.59Zm6.88-12.23a10.59,10.59,0,0,0,0-14.46,9.37,9.37,0,0,0-13.76,0,10.59,10.59,0,0,0,0,14.46A9.45,9.45,0,0,0,1109.64,333.36Z" transform="translate(-803 -211)"/><path class="cls-3" d="M1137,289v9.73h-9.73V289H1137Zm0,17.63v38.93h-9.73V306.66H1137Z" transform="translate(-803 -211)"/><path class="cls-3" d="M1150.3,306.66a0.66,0.66,0,0,1,.66.66v18.77a10.19,10.19,0,0,0,2.77,7.15,9.11,9.11,0,0,0,7,3.09,9,9,0,0,0,6.3-2.43,11.14,11.14,0,0,0,3.43-8.26V307.32a0.66,0.66,0,0,1,.66-0.66h8.38a0.66,0.66,0,0,1,.66.66v18.81a19.45,19.45,0,0,1-38.89,0V307.32a0.66,0.66,0,0,1,.66-0.66h8.42Z" transform="translate(-803 -211)"/><path class="cls-3" d="M1211.79,345.59V326a10,10,0,0,0-2.35-6.88,9.15,9.15,0,0,0-13.06,0A10,10,0,0,0,1194,326v19.58h-9.69V326a19.23,19.23,0,0,1,5.2-13.8,17.57,17.57,0,0,1,13.37-5.55,17,17,0,0,1,7.74,1.92,15.12,15.12,0,0,1,6,5.28,14.83,14.83,0,0,1,6-5.28,17,17,0,0,1,7.74-1.92,17.7,17.7,0,0,1,13.41,5.55A19.33,19.33,0,0,1,1249,326v19.58h-9.73V326a10,10,0,0,0-2.35-6.88,9.16,9.16,0,0,0-13.06,0,10,10,0,0,0-2.35,6.88v19.58h-9.73Z" transform="translate(-803 -211)"/></svg>