<svg id="Слой_1" data-name="Слой 1" xmlns="http://www.w3.org/2000/svg" viewBox="0 0 446 135.35"><defs><style>.cls-1{fill:#7a7a7a;}</style></defs><title>logo-grey</title><path class="cls-1" d="M514,515.83a12.66,12.66,0,0,1,8.45,3.14l41.23,36.46-61.84,54.93V526.51c0-6.42,6-10.68,12.16-10.68m0-7.83a21.05,21.05,0,0,0-13.39,4.72,17.63,17.63,0,0,0-6.6,13.79v98.67l13-9.83,61.84-54.06,6.6-5.87-6.62-5.85-41.23-36.46A20.56,20.56,0,0,0,514,508h0Z" transform="translate(-494 -508)"/><path class="cls-1" d="M625.29,515.83c6.21,0,12.16,4.25,12.16,10.68v98.36c0,5.88-5.4,10.66-12.07,10.66H513.95c-10.75,0-16.14-11.48-8.54-18.19L616.84,519a12.66,12.66,0,0,1,8.45-3.14m0-7.83h0a20.56,20.56,0,0,0-13.63,5.1L500.23,611.47A17.39,17.39,0,0,0,495.17,631c2.84,7.51,10.21,12.36,18.78,12.36H625.38c11,0,19.9-8.29,19.9-18.48V526.51a17.63,17.63,0,0,0-6.6-13.79A21.05,21.05,0,0,0,625.29,508h0Z" transform="translate(-494 -508)"/><path class="cls-1" d="M685.77,564.8a19.47,19.47,0,0,1,0-38.93q6.18,0,9.73,3.75V508.24h9.73v36.94A19.49,19.49,0,0,1,685.77,564.8Zm6.88-12.23a10.59,10.59,0,0,0,0-14.46,9.37,9.37,0,0,0-13.76,0,10.59,10.59,0,0,0,0,14.46A9.45,9.45,0,0,0,692.65,552.56Z" transform="translate(-494 -508)"/><path class="cls-1" d="M720,508.24V518h-9.73v-9.73H720Zm0,17.63V564.8h-9.73V525.87H720Z" transform="translate(-494 -508)"/><path class="cls-1" d="M737.4,572.26a11.67,11.67,0,0,0,6.92.7,9.92,9.92,0,0,0,8.33-10.16V561q-3.56,3.75-9.73,3.75a19.46,19.46,0,1,1,19.47-19.31V562.8a19.48,19.48,0,0,1-19.47,19.47q-12.55,0-18.8-10.55l7.62-4.46A11.86,11.86,0,0,0,737.4,572.26Zm5.51-37.17a9.19,9.19,0,0,0-6.88,3,10.59,10.59,0,0,0,0,14.46,9.37,9.37,0,0,0,13.76,0,10.59,10.59,0,0,0,0-14.46A9.2,9.2,0,0,0,742.91,535.09Z" transform="translate(-494 -508)"/><path class="cls-1" d="M776.35,508.24V518h-9.73v-9.73h9.73Zm0,17.63V564.8h-9.73V525.87h9.73Z" transform="translate(-494 -508)"/><path class="cls-1" d="M791,508.24v17.63h18.14v9.22H791v8.6q0,5.2,2.15,8.17a7.42,7.42,0,0,0,2.85,2.38,7.76,7.76,0,0,0,3.52.82,10.62,10.62,0,0,0,2.77-.39q2.23-.59,6.25-3.75l5.71,7.93q-6.06,4.53-10.71,5.47a19.6,19.6,0,0,1-4.18.47,15.91,15.91,0,0,1-7.54-1.84,16.92,16.92,0,0,1-6.49-5.47q-4-5.51-4-13.8V508.24H791Z" transform="translate(-494 -508)"/><path class="cls-1" d="M844.75,531.57a18.94,18.94,0,0,1,5.71,13.92V564.8h-9.07v-4.53q-3.6,4.53-10.4,4.53A19.47,19.47,0,1,1,844.75,531.57ZM831,535.09a9.14,9.14,0,0,0-6.88,3,10.59,10.59,0,0,0,0,14.46,9.45,9.45,0,0,0,13.76,0,10.59,10.59,0,0,0,0-14.46A9.14,9.14,0,0,0,831,535.09Z" transform="translate(-494 -508)"/><path class="cls-1" d="M864,508.24v35.45q0,5.2,2.15,8.17a8.84,8.84,0,0,0,2.93,2.62,7.2,7.2,0,0,0,3.6.82,8.85,8.85,0,0,0,1.17-.08,24.33,24.33,0,0,0,6-2.19l3.48,8.64a18.88,18.88,0,0,1-8.64,3.09q-1.68,0-3.17,0a14.14,14.14,0,0,1-6.8-1.68,18,18,0,0,1-6.45-5.63q-4-5.51-4-13.8V508.24H864Z" transform="translate(-494 -508)"/><path class="cls-1" d="M695.31,642.59V623a10,10,0,0,0-2.35-6.88,9.15,9.15,0,0,0-13.06,0,10,10,0,0,0-2.35,6.88v19.58h-9.69V623a19.23,19.23,0,0,1,5.2-13.8,17.57,17.57,0,0,1,13.37-5.55,17,17,0,0,1,7.74,1.92,15.12,15.12,0,0,1,6,5.28,14.82,14.82,0,0,1,6-5.28,17,17,0,0,1,7.74-1.92,17.71,17.71,0,0,1,13.41,5.55,19.33,19.33,0,0,1,5.2,13.8v19.58h-9.73V623a10,10,0,0,0-2.35-6.88,9.16,9.16,0,0,0-13.06,0A10,10,0,0,0,705,623v19.58h-9.73Z" transform="translate(-494 -508)"/><path class="cls-1" d="M749.38,631.57a11.74,11.74,0,0,0,6.65,2,15.61,15.61,0,0,0,5.75-1.17,10.26,10.26,0,0,0,4.69-3.32l7.31,5.12a18.26,18.26,0,0,1-7.86,6.14,23.81,23.81,0,0,1-9.89,2.23A20.45,20.45,0,0,1,746.1,640a19,19,0,0,1-9.46-11.8,19.68,19.68,0,0,1-.67-5.08,19.48,19.48,0,0,1,19.47-19.47A19,19,0,0,1,766.26,607q6.06,4.07,8.33,12.2Zm13.88-15.44a8.87,8.87,0,0,0-7.82-4.07,10.3,10.3,0,0,0-8.29,3.83,11.1,11.1,0,0,0-2,9.15Z" transform="translate(-494 -508)"/><path class="cls-1" d="M793.76,642.59a19.47,19.47,0,0,1,0-38.93q6.18,0,9.73,3.75V586h9.73V623A19.48,19.48,0,0,1,793.76,642.59Zm6.88-12.23a10.59,10.59,0,0,0,0-14.46,9.37,9.37,0,0,0-13.76,0,10.59,10.59,0,0,0,0,14.46A9.45,9.45,0,0,0,800.64,630.36Z" transform="translate(-494 -508)"/><path class="cls-1" d="M828,586v9.73h-9.73V586H828Zm0,17.63v38.93h-9.73V603.66H828Z" transform="translate(-494 -508)"/><path class="cls-1" d="M841.3,603.66a0.66,0.66,0,0,1,.66.66v18.77a10.19,10.19,0,0,0,2.77,7.15,9.11,9.11,0,0,0,7,3.09,9,9,0,0,0,6.3-2.43,11.14,11.14,0,0,0,3.43-8.26V604.32a0.66,0.66,0,0,1,.66-0.66h8.38a0.66,0.66,0,0,1,.66.66v18.81a19.45,19.45,0,0,1-38.89,0V604.32a0.66,0.66,0,0,1,.66-0.66h8.42Z" transform="translate(-494 -508)"/><path class="cls-1" d="M902.79,642.59V623a10,10,0,0,0-2.35-6.88,9.15,9.15,0,0,0-13.06,0A10,10,0,0,0,885,623v19.58h-9.69V623a19.23,19.23,0,0,1,5.2-13.8,17.57,17.57,0,0,1,13.37-5.55,17,17,0,0,1,7.74,1.92,15.12,15.12,0,0,1,6,5.28,14.83,14.83,0,0,1,6-5.28,17,17,0,0,1,7.74-1.92,17.7,17.7,0,0,1,13.41,5.55A19.33,19.33,0,0,1,940,623v19.58h-9.73V623a10,10,0,0,0-2.35-6.88,9.16,9.16,0,0,0-13.06,0,10,10,0,0,0-2.35,6.88v19.58h-9.73Z" transform="translate(-494 -508)"/></svg>